<svg width="27" height="30" viewBox="0 0 27 30" fill="none" xmlns="http://www.w3.org/2000/svg">
<path d="M0.541191 0.677637C0.198387 1.028 0 1.57348 0 2.27989V27.4773C0 28.1837 0.198387 28.7292 0.541191 29.0796L0.625798 29.1565L15.0877 15.0424V14.7091L0.625798 0.595033L0.541191 0.677637Z" fill="url(#paint0_linear_4632_11283)"/>
<path d="M19.9022 19.7493L15.0869 15.0422V14.7089L19.908 10.0019L20.016 10.0631L25.7255 13.2349C27.3549 14.135 27.3549 15.6162 25.7255 16.522L20.016 19.688L19.9022 19.7493Z" fill="url(#paint1_linear_4632_11283)"/>
<path d="M20.0157 19.6881L15.0866 14.8756L0.540039 29.0794C1.08123 29.6349 1.96377 29.7018 2.96738 29.1464L20.0157 19.6881Z" fill="url(#paint2_linear_4632_11283)"/>
<path d="M20.0157 10.0633L2.96738 0.604977C1.96377 0.0552244 1.08123 0.122161 0.540039 0.67761L15.0866 14.8757L20.0157 10.0633Z" fill="url(#paint3_linear_4632_11283)"/>
<defs>
<linearGradient id="paint0_linear_4632_11283" x1="13.8037" y1="27.7397" x2="-5.3124" y2="8.16045" gradientUnits="userSpaceOnUse">
<stop stop-color="#00A0FF"/>
<stop offset="0.0066" stop-color="#00A1FF"/>
<stop offset="0.2601" stop-color="#00BEFF"/>
<stop offset="0.5122" stop-color="#00D2FF"/>
<stop offset="0.7604" stop-color="#00DFFF"/>
<stop offset="1" stop-color="#00E3FF"/>
</linearGradient>
<linearGradient id="paint1_linear_4632_11283" x1="27.8473" y1="14.874" x2="-0.390296" y2="14.874" gradientUnits="userSpaceOnUse">
<stop stop-color="#FFE000"/>
<stop offset="0.4087" stop-color="#FFBD00"/>
<stop offset="0.7754" stop-color="#FFA500"/>
<stop offset="1" stop-color="#FF9C00"/>
</linearGradient>
<linearGradient id="paint2_linear_4632_11283" x1="17.3354" y1="12.2595" x2="-8.5876" y2="-14.2916" gradientUnits="userSpaceOnUse">
<stop stop-color="#FF3A44"/>
<stop offset="1" stop-color="#C31162"/>
</linearGradient>
<linearGradient id="paint3_linear_4632_11283" x1="-3.12163" y1="37.4626" x2="8.45414" y2="25.6065" gradientUnits="userSpaceOnUse">
<stop stop-color="#32A071"/>
<stop offset="0.0685" stop-color="#2DA771"/>
<stop offset="0.4762" stop-color="#15CF74"/>
<stop offset="0.8009" stop-color="#06E775"/>
<stop offset="1" stop-color="#00F076"/>
</linearGradient>
</defs>
</svg>
